/* XPM */
static char * bottom_left_active_xpm[] = {
"5 5 8 1",
" 	c None",
".	c #000000",
"+	c #0E0E0E",
"@	c #1C1C1C",
"#	c #232323",
"$	c #0A0A0A",
"%	c #111111",
"&	c #020202",
".+@#@",
".+@##",
".$%@@",
".&$++",
" ...."};
