/* XPM */
static char * bottom_right_active_xpm[] = {
"5 5 8 1",
" 	c None",
".	c #1C1C1C",
"+	c #232323",
"@	c #0E0E0E",
"#	c #000000",
"$	c #111111",
"%	c #0A0A0A",
"&	c #020202",
".+.@#",
"++.@#",
"..$%#",
"@@%&#",
"#### "};
