/* XPM */
static char * bottom_active_xpm[] = {
"6 5 5 1",
" 	c None",
".	c #1C1C1C",
"+	c #232323",
"@	c #0E0E0E",
"#	c #000000",
"......",
"++++++",
"......",
"@@@@@@",
"######"};
