/* XPM */
static char * hide_active_xpm[] = {
"24 15 43 1",
" 	c None",
".	c #0F0F0F",
"+	c #0D0D0D",
"@	c #282828",
"#	c #4D4D4D",
"$	c #4E4E4E",
"%	c #0B0B0B",
"&	c #474747",
"*	c #383838",
"=	c #393939",
"-	c #484848",
";	c #0A0A0A",
">	c #404040",
",	c #303030",
"'	c #313131",
")	c #323232",
"!	c #414141",
"~	c #090909",
"{	c #292929",
"]	c #2A2A2A",
"^	c #3B3B3B",
"/	c #070707",
"(	c #333333",
"_	c #222222",
":	c #212121",
"<	c #232323",
"[	c #343434",
"}	c #080808",
"|	c #060606",
"1	c #2C2C2C",
"2	c #191919",
"3	c #1A1A1A",
"4	c #1B1B1B",
"5	c #2D2D2D",
"6	c #000000",
"7	c #181818",
"8	c #0E0E0E",
"9	c #151515",
"0	c #141414",
"a	c #FFFFFF",
"b	c #131313",
"c	c #121212",
"d	c #111111",
"                        ",
" ...................... ",
"+@#######$$##$$$$$$$$$@+",
"%&*******==**=========-%",
";>,,,,,,''',''''''''')!;",
"~={{{{{{]{]{]{]]]]]]]]^~",
"/(__::______________<<[}",
"|1223333333333333444445|",
"67++++++++8+++8888888826",
"696666666666666666666606",
"606666666aaaaaa666666606",
"6b6666666aaaaaa6666666b6",
"6c66666666666666666666c6",
"6|cccccccccccccccccccd|6",
" 6666666666666666666666 "};
