/* XPM */
static char * left_active_xpm[] = {
"5 6 5 1",
" 	c None",
".	c #000000",
"+	c #0E0E0E",
"@	c #1C1C1C",
"#	c #232323",
".+@#@",
".+@#@",
".+@#@",
".+@#@",
".+@#@",
".+@#@"};
