/* XPM */
static char * maximize_inactive_xpm[] = {
"24 15 43 1",
" 	c None",
".	c #0F0F0F",
"+	c #0D0D0D",
"@	c #282828",
"#	c #4D4D4D",
"$	c #4E4E4E",
"%	c #0B0B0B",
"&	c #474747",
"*	c #383838",
"=	c #393939",
"-	c #484848",
";	c #0A0A0A",
">	c #404040",
",	c #303030",
"'	c #808080",
")	c #313131",
"!	c #323232",
"~	c #414141",
"{	c #090909",
"]	c #292929",
"^	c #2A2A2A",
"/	c #3B3B3B",
"(	c #070707",
"_	c #333333",
":	c #222222",
"<	c #212121",
"[	c #232323",
"}	c #343434",
"|	c #080808",
"1	c #060606",
"2	c #2C2C2C",
"3	c #191919",
"4	c #1A1A1A",
"5	c #1B1B1B",
"6	c #2D2D2D",
"7	c #000000",
"8	c #181818",
"9	c #0E0E0E",
"0	c #151515",
"a	c #141414",
"b	c #131313",
"c	c #121212",
"d	c #111111",
"                        ",
" ...................... ",
"+@#######$$##$$$$$$$$$@+",
"%&*******==**=========-%",
";>,,,,,,'''''''')))))!~;",
"{=]]]]]]''''''''^^^^^^/{",
"(_::<<::'::::::'::::[[}|",
"12334444'444444'45555561",
"78++++++'+9+++9'99999937",
"70777777'777777'777777a7",
"7a777777'777777'777777a7",
"7b777777''''''''777777b7",
"7c77777777777777777777c7",
"71cccccccccccccccccccd17",
" 7777777777777777777777 "};
