/* XPM */
static char * maximize_toggled_pressed_xpm[] = {
"24 15 3 1",
" 	c None",
".	c #000000",
"+	c #FFFFFF",
"                        ",
" ...................... ",
"........................",
"........................",
"..........+++++++.......",
"..........+++++++.......",
"................+.......",
".......+++++++..+.......",
".......+++++++..+.......",
".......+.....+..+.......",
".......+.....+.++.......",
".......+.....+..........",
".......+.....+..........",
".......+++++++..........",
" ...................... "};
