/* XPM */
static char * top_right_active_xpm[] = {
"5 20 30 1",
" 	c None",
".	c #000000",
"+	c #010101",
"@	c #0E0E0E",
"#	c #0F0F0F",
"$	c #060606",
"%	c #4F4F4F",
"&	c #484848",
"*	c #2D2D2D",
"=	c #303030",
"-	c #2B2B2B",
";	c #252525",
">	c #101010",
",	c #1F1F1F",
"'	c #1E1E1E",
")	c #191919",
"!	c #1A1A1A",
"~	c #151515",
"{	c #181818",
"]	c #111111",
"^	c #171717",
"/	c #0D0D0D",
"(	c #0A0A0A",
"_	c #1B1B1B",
":	c #0C0C0C",
"<	c #1C1C1C",
"[	c #0B0B0B",
"}	c #1D1D1D",
"|	c #202020",
"1	c #212121",
"...+ ",
"@#@$.",
"%&*#.",
"=-;>.",
",,'@.",
")!!@.",
"~){@.",
"]!^@.",
"/)^/.",
"(_^:.",
"(<^[.",
"(<^(.",
"(_^(.",
"(_^(.",
"(_^(.",
"(}^(.",
"(}{(.",
"(}):.",
"(|!/.",
"@1_@."};
