/* XPM */
static char * top_left_active_xpm[] = {
"5 20 30 1",
" 	c None",
".	c #010101",
"+	c #000000",
"@	c #060606",
"#	c #0E0E0E",
"$	c #0F0F0F",
"%	c #2D2D2D",
"&	c #484848",
"*	c #4F4F4F",
"=	c #101010",
"-	c #252525",
";	c #2B2B2B",
">	c #303030",
",	c #1E1E1E",
"'	c #1F1F1F",
")	c #1A1A1A",
"!	c #191919",
"~	c #181818",
"{	c #151515",
"]	c #171717",
"^	c #111111",
"/	c #0D0D0D",
"(	c #0C0C0C",
"_	c #1B1B1B",
":	c #0A0A0A",
"<	c #0B0B0B",
"[	c #1C1C1C",
"}	c #1D1D1D",
"|	c #202020",
"1	c #212121",
" .+++",
"+@#$#",
"+$%&*",
"+=-;>",
"+#,''",
"+#))!",
"+#~!{",
"+#])^",
"+/]!/",
"+(]_:",
"+<][:",
"+:][:",
"+:]_:",
"+:]_:",
"+:]_:",
"+:]}:",
"+:~}:",
"+(!}:",
"+/)|:",
"+#_1#"};
